<svg xmlns="http://www.w3.org/2000/svg" width="1440" height="900"><path d="M763,444L658,491L750,503Z" fill="#016596" stroke="#016596" stroke-width="1.51"/><path d="M763,444L705,368L658,491Z" fill="#026fa3" stroke="#026fa3" stroke-width="1.51"/><path d="M658,491L643,537L750,503Z" fill="#026494" stroke="#026494" stroke-width="1.51"/><path d="M658,491L606,541L643,537Z" fill="#016898" stroke="#016898" stroke-width="1.51"/><path d="M574,453L606,541L658,491Z" fill="#0170a3" stroke="#0170a3" stroke-width="1.51"/><path d="M705,368L574,453L658,491Z" fill="#0276ac" stroke="#0276ac" stroke-width="1.51"/><path d="M777,291L703,334L705,368Z" fill="#0182b9" stroke="#0182b9" stroke-width="1.51"/><path d="M549,381L574,453L705,368Z" fill="#0183ba" stroke="#0183ba" stroke-width="1.51"/><path d="M643,537L725,609L750,503Z" fill="#025a88" stroke="#025a88" stroke-width="1.51"/><path d="M631,660L725,609L643,537Z" fill="#015582" stroke="#015582" stroke-width="1.51"/><path d="M763,444L839,379L705,368Z" fill="#016fa3" stroke="#016fa3" stroke-width="1.51"/><path d="M896,482L839,379L763,444Z" fill="#026090" stroke="#026090" stroke-width="1.51"/><path d="M840,549L763,444L750,503Z" fill="#015a88" stroke="#015a88" stroke-width="1.51"/><path d="M725,609L840,549L750,503Z" fill="#01517d" stroke="#01517d" stroke-width="1.51"/><path d="M703,334L549,381L705,368Z" fill="#0285bd" stroke="#0285bd" stroke-width="1.51"/><path d="M840,549L883,515L763,444Z" fill="#015481" stroke="#015481" stroke-width="1.51"/><path d="M839,379L777,291L705,368Z" fill="#0179af" stroke="#0179af" stroke-width="1.51"/><path d="M703,334L563,302L549,381Z" fill="#0190ca" stroke="#0190ca" stroke-width="1.51"/><path d="M839,379L847,336L777,291Z" fill="#0275aa" stroke="#0275aa" stroke-width="1.51"/><path d="M969,371L847,336L839,379Z" fill="#02689a" stroke="#02689a" stroke-width="1.51"/><path d="M883,515L896,482L763,444Z" fill="#015683" stroke="#015683" stroke-width="1.51"/><path d="M725,609L786,636L840,549Z" fill="#014872" stroke="#014872" stroke-width="1.51"/><path d="M840,549L897,587L883,515Z" fill="#014670" stroke="#014670" stroke-width="1.51"/><path d="M574,453L491,557L606,541Z" fill="#0172a6" stroke="#0172a6" stroke-width="1.51"/><path d="M549,381L524,416L574,453Z" fill="#0287c0" stroke="#0287c0" stroke-width="1.51"/><path d="M777,291L705,260L703,334Z" fill="#0187c0" stroke="#0187c0" stroke-width="1.51"/><path d="M524,416L504,451L574,453Z" fill="#0284bc" stroke="#0284bc" stroke-width="1.51"/><path d="M606,541L631,660L643,537Z" fill="#015d8d" stroke="#015d8d" stroke-width="1.51"/><path d="M725,609L649,689L786,636Z" fill="#024c75" stroke="#024c75" stroke-width="1.51"/><path d="M524,671L631,660L606,541Z" fill="#025d8b" stroke="#025d8b" stroke-width="1.51"/><path d="M705,260L563,302L703,334Z" fill="#0191cc" stroke="#0191cc" stroke-width="1.51"/><path d="M392,318L422,446L524,416Z" fill="#0193ce" stroke="#0193ce" stroke-width="1.51"/><path d="M524,416L422,446L504,451Z" fill="#028bc4" stroke="#028bc4" stroke-width="1.51"/><path d="M870,632L897,587L840,549Z" fill="#004068" stroke="#004068" stroke-width="1.51"/><path d="M1021,569L1009,451L896,482Z" fill="#01456e" stroke="#01456e" stroke-width="1.51"/><path d="M777,291L735,221L705,260Z" fill="#0184bb" stroke="#0184bb" stroke-width="1.51"/><path d="M847,336L806,256L777,291Z" fill="#017db4" stroke="#017db4" stroke-width="1.51"/><path d="M631,660L649,689L725,609Z" fill="#03527c" stroke="#03527c" stroke-width="1.51"/><path d="M866,775L870,632L786,636Z" fill="#023d60" stroke="#023d60" stroke-width="1.51"/><path d="M786,636L870,632L840,549Z" fill="#01426a" stroke="#01426a" stroke-width="1.51"/><path d="M504,451L491,557L574,453Z" fill="#017cb2" stroke="#017cb2" stroke-width="1.51"/><path d="M631,660L589,770L649,689Z" fill="#04547c" stroke="#04547c" stroke-width="1.51"/><path d="M705,260L555,254L563,302Z" fill="#0195d1" stroke="#0195d1" stroke-width="1.51"/><path d="M806,256L735,221L777,291Z" fill="#0180b5" stroke="#0180b5" stroke-width="1.51"/><path d="M464,277L524,416L549,381Z" fill="#0198d4" stroke="#0198d4" stroke-width="1.51"/><path d="M601,152L555,254L705,260Z" fill="#0190c9" stroke="#0190c9" stroke-width="1.51"/><path d="M896,482L969,371L839,379Z" fill="#015d8c" stroke="#015d8c" stroke-width="1.51"/><path d="M847,336L927,290L806,256Z" fill="#0277ac" stroke="#0277ac" stroke-width="1.51"/><path d="M1009,451L969,371L896,482Z" fill="#01527f" stroke="#01527f" stroke-width="1.51"/><path d="M491,557L524,671L606,541Z" fill="#016697" stroke="#016697" stroke-width="1.51"/><path d="M969,371L927,290L847,336Z" fill="#016a9c" stroke="#016a9c" stroke-width="1.51"/><path d="M805,141L708,171L735,221Z" fill="#017db1" stroke="#017db1" stroke-width="1.51"/><path d="M504,451L413,535L491,557Z" fill="#017cb2" stroke="#017cb2" stroke-width="1.51"/><path d="M491,557L420,575L524,671Z" fill="#016b9d" stroke="#016b9d" stroke-width="1.51"/><path d="M464,277L549,381L563,302Z" fill="#019edc" stroke="#019edc" stroke-width="1.51"/><path d="M927,290L929,272L806,256Z" fill="#0272a6" stroke="#0272a6" stroke-width="1.51"/><path d="M1003,276L929,272L927,290Z" fill="#016b9c" stroke="#016b9c" stroke-width="1.51"/><path d="M735,221L708,171L705,260Z" fill="#0184ba" stroke="#0184ba" stroke-width="1.51"/><path d="M805,141L735,221L806,256Z" fill="#017bae" stroke="#017bae" stroke-width="1.51"/><path d="M1021,569L896,482L883,515Z" fill="#00456e" stroke="#00456e" stroke-width="1.51"/><path d="M969,371L1003,276L927,290Z" fill="#01699a" stroke="#01699a" stroke-width="1.51"/><path d="M1021,569L883,515L897,587Z" fill="#003e66" stroke="#003e66" stroke-width="1.51"/><path d="M422,446L413,535L504,451Z" fill="#0182b9" stroke="#0182b9" stroke-width="1.51"/><path d="M649,689L721,767L786,636Z" fill="#034a70" stroke="#034a70" stroke-width="1.51"/><path d="M656,780L721,767L649,689Z" fill="#044c71" stroke="#044c71" stroke-width="1.51"/><path d="M555,254L464,277L563,302Z" fill="#01a0de" stroke="#01a0de" stroke-width="1.51"/><path d="M499,210L464,277L555,254Z" fill="#00a1de" stroke="#00a1de" stroke-width="1.51"/><path d="M413,535L420,575L491,557Z" fill="#0273a6" stroke="#0273a6" stroke-width="1.51"/><path d="M589,770L656,780L649,689Z" fill="#045177" stroke="#045177" stroke-width="1.51"/><path d="M870,632L971,653L897,587Z" fill="#01385d" stroke="#01385d" stroke-width="1.51"/><path d="M907,782L971,653L870,632Z" fill="#023456" stroke="#023456" stroke-width="1.51"/><path d="M601,152L499,210L555,254Z" fill="#0198d2" stroke="#0198d2" stroke-width="1.51"/><path d="M708,171L601,152L705,260Z" fill="#0188be" stroke="#0188be" stroke-width="1.51"/><path d="M490,752L589,770L524,671Z" fill="#055d87" stroke="#055d87" stroke-width="1.51"/><path d="M524,671L589,770L631,660Z" fill="#045a83" stroke="#045a83" stroke-width="1.51"/><path d="M971,653L1021,569L897,587Z" fill="#003458" stroke="#003458" stroke-width="1.51"/><path d="M862,160L805,141L806,256Z" fill="#0274a6" stroke="#0274a6" stroke-width="1.51"/><path d="M708,171L642,93L601,152Z" fill="#0186bc" stroke="#0186bc" stroke-width="1.51"/><path d="M929,272L862,160L806,256Z" fill="#0272a4" stroke="#0272a4" stroke-width="1.51"/><path d="M819,800L866,775L786,636Z" fill="#033c5d" stroke="#033c5d" stroke-width="1.51"/><path d="M656,780L725,803L721,767Z" fill="#044769" stroke="#044769" stroke-width="1.51"/><path d="M706,841L725,803L656,780Z" fill="#054668" stroke="#054668" stroke-width="1.51"/><path d="M464,277L392,318L524,416Z" fill="#019fdd" stroke="#019fdd" stroke-width="1.51"/><path d="M422,446L332,494L413,535Z" fill="#017db2" stroke="#017db2" stroke-width="1.51"/><path d="M432,191L392,318L464,277Z" fill="#00a3e0" stroke="#00a3e0" stroke-width="1.51"/><path d="M929,272L928,182L862,160Z" fill="#016b9c" stroke="#016b9c" stroke-width="1.51"/><path d="M1027,320L1003,276L969,371Z" fill="#036596" stroke="#036596" stroke-width="1.51"/><path d="M1027,320L969,371L1055,378Z" fill="#025e8c" stroke="#025e8c" stroke-width="1.51"/><path d="M1055,378L969,371L1009,451Z" fill="#025682" stroke="#025682" stroke-width="1.51"/><path d="M819,800L786,636L721,767Z" fill="#034264" stroke="#034264" stroke-width="1.51"/><path d="M725,803L819,800L721,767Z" fill="#044161" stroke="#044161" stroke-width="1.51"/><path d="M1003,276L928,182L929,272Z" fill="#026899" stroke="#026899" stroke-width="1.51"/><path d="M1112,454L1055,378L1009,451Z" fill="#035078" stroke="#035078" stroke-width="1.51"/><path d="M401,726L490,752L524,671Z" fill="#05648f" stroke="#05648f" stroke-width="1.51"/><path d="M599,835L706,841L656,780Z" fill="#054a6c" stroke="#054a6c" stroke-width="1.51"/><path d="M971,653L1034,642L1021,569Z" fill="#013154" stroke="#013154" stroke-width="1.51"/><path d="M1021,569L1112,454L1009,451Z" fill="#02446b" stroke="#02446b" stroke-width="1.51"/><path d="M1036,709L1034,642L971,653Z" fill="#022f4e" stroke="#022f4e" stroke-width="1.51"/><path d="M866,775L907,782L870,632Z" fill="#033656" stroke="#033656" stroke-width="1.51"/><path d="M947,848L907,782L866,775Z" fill="#03304c" stroke="#03304c" stroke-width="1.51"/><path d="M460,132L432,191L499,210Z" fill="#009fd9" stroke="#009fd9" stroke-width="1.51"/><path d="M729,28L642,93L708,171Z" fill="#027eb1" stroke="#027eb1" stroke-width="1.51"/><path d="M413,535L322,617L420,575Z" fill="#016c9d" stroke="#016c9d" stroke-width="1.51"/><path d="M380,704L401,726L524,671Z" fill="#05648f" stroke="#05648f" stroke-width="1.51"/><path d="M324,380L332,494L422,446Z" fill="#0286bc" stroke="#0286bc" stroke-width="1.51"/><path d="M725,803L747,907L819,800Z" fill="#043d5b" stroke="#043d5b" stroke-width="1.51"/><path d="M819,800L947,848L866,775Z" fill="#03324f" stroke="#03324f" stroke-width="1.51"/><path d="M599,835L656,780L589,770Z" fill="#055074" stroke="#055074" stroke-width="1.51"/><path d="M499,210L432,191L464,277Z" fill="#00a2df" stroke="#00a2df" stroke-width="1.51"/><path d="M392,318L324,380L422,446Z" fill="#0192cc" stroke="#0192cc" stroke-width="1.51"/><path d="M460,132L499,210L480,111Z" fill="#009dd7" stroke="#009dd7" stroke-width="1.51"/><path d="M490,752L599,835L589,770Z" fill="#05577d" stroke="#05577d" stroke-width="1.51"/><path d="M333,335L324,380L392,318Z" fill="#0199d3" stroke="#0199d3" stroke-width="1.51"/><path d="M321,209L333,335L392,318Z" fill="#00a1dd" stroke="#00a1dd" stroke-width="1.51"/><path d="M805,141L729,28L708,171Z" fill="#0179aa" stroke="#0179aa" stroke-width="1.51"/><path d="M862,160L841,83L805,141Z" fill="#026f9e" stroke="#026f9e" stroke-width="1.51"/><path d="M964,72L841,83L862,160Z" fill="#026794" stroke="#026794" stroke-width="1.51"/><path d="M1120,615L1112,454L1021,569Z" fill="#02395d" stroke="#02395d" stroke-width="1.51"/><path d="M1055,378L1113,365L1027,320Z" fill="#035d89" stroke="#035d89" stroke-width="1.51"/><path d="M1092,211L1030,165L1003,276Z" fill="#036390" stroke="#036390" stroke-width="1.51"/><path d="M380,704L524,671L420,575Z" fill="#046796" stroke="#046796" stroke-width="1.51"/><path d="M490,752L500,884L599,835Z" fill="#06597d" stroke="#06597d" stroke-width="1.51"/><path d="M322,617L380,704L420,575Z" fill="#026593" stroke="#026593" stroke-width="1.51"/><path d="M1034,642L1120,615L1021,569Z" fill="#013051" stroke="#013051" stroke-width="1.51"/><path d="M907,782L1036,709L971,653Z" fill="#022d4d" stroke="#022d4d" stroke-width="1.51"/><path d="M432,191L321,209L392,318Z" fill="#009fda" stroke="#009fda" stroke-width="1.51"/><path d="M480,111L499,210L601,152Z" fill="#0198d1" stroke="#0198d1" stroke-width="1.51"/><path d="M279,514L322,617L332,494Z" fill="#0270a1" stroke="#0270a1" stroke-width="1.51"/><path d="M332,494L322,617L413,535Z" fill="#0270a2" stroke="#0270a2" stroke-width="1.51"/><path d="M1112,454L1113,365L1055,378Z" fill="#03547d" stroke="#03547d" stroke-width="1.51"/><path d="M1003,276L1030,165L928,182Z" fill="#036493" stroke="#036493" stroke-width="1.51"/><path d="M928,182L964,72L862,160Z" fill="#016593" stroke="#016593" stroke-width="1.51"/><path d="M576,58L480,111L601,152Z" fill="#0191c7" stroke="#0191c7" stroke-width="1.51"/><path d="M642,93L576,58L601,152Z" fill="#018abe" stroke="#018abe" stroke-width="1.51"/><path d="M653,5L576,58L642,93Z" fill="#0184b6" stroke="#0184b6" stroke-width="1.51"/><path d="M251,403L279,514L332,494Z" fill="#017db0" stroke="#017db0" stroke-width="1.51"/><path d="M251,403L332,494L324,380Z" fill="#0186bc" stroke="#0186bc" stroke-width="1.51"/><path d="M841,83L729,28L805,141Z" fill="#0172a0" stroke="#0172a0" stroke-width="1.51"/><path d="M1092,211L1003,276L1027,320Z" fill="#046795" stroke="#046795" stroke-width="1.51"/><path d="M841,83L766,-16L729,28Z" fill="#016f9d" stroke="#016f9d" stroke-width="1.51"/><path d="M1127,666L1120,615L1034,642Z" fill="#022e4c" stroke="#022e4c" stroke-width="1.51"/><path d="M1112,454L1136,355L1113,365Z" fill="#04547d" stroke="#04547d" stroke-width="1.51"/><path d="M1113,365L1136,355L1027,320Z" fill="#035e89" stroke="#035e89" stroke-width="1.51"/><path d="M1238,405L1136,355L1112,454Z" fill="#045076" stroke="#045076" stroke-width="1.51"/><path d="M599,835L650,903L706,841Z" fill="#064968" stroke="#064968" stroke-width="1.51"/><path d="M706,841L747,907L725,803Z" fill="#05405f" stroke="#05405f" stroke-width="1.51"/><path d="M588,933L650,903L599,835Z" fill="#074b6a" stroke="#074b6a" stroke-width="1.51"/><path d="M480,111L483,79L460,132Z" fill="#009ad2" stroke="#009ad2" stroke-width="1.51"/><path d="M460,132L354,174L432,191Z" fill="#009bd4" stroke="#009bd4" stroke-width="1.51"/><path d="M576,58L483,79L480,111Z" fill="#0094cb" stroke="#0094cb" stroke-width="1.51"/><path d="M650,903L747,907L706,841Z" fill="#05415f" stroke="#05415f" stroke-width="1.51"/><path d="M907,782L947,848L1036,709Z" fill="#022b47" stroke="#022b47" stroke-width="1.51"/><path d="M234,544L295,633L322,617Z" fill="#026491" stroke="#026491" stroke-width="1.51"/><path d="M322,617L295,633L380,704Z" fill="#03628e" stroke="#03628e" stroke-width="1.51"/><path d="M397,866L461,856L401,726Z" fill="#065d81" stroke="#065d81" stroke-width="1.51"/><path d="M939,909L947,848L819,800Z" fill="#032d47" stroke="#032d47" stroke-width="1.51"/><path d="M1036,709L1127,666L1034,642Z" fill="#022d4a" stroke="#022d4a" stroke-width="1.51"/><path d="M275,294L251,403L324,380Z" fill="#0193cc" stroke="#0193cc" stroke-width="1.51"/><path d="M344,86L354,174L460,132Z" fill="#0098cf" stroke="#0098cf" stroke-width="1.51"/><path d="M1136,355L1092,211L1027,320Z" fill="#036694" stroke="#036694" stroke-width="1.51"/><path d="M465,-13L450,39L483,79Z" fill="#0095ca" stroke="#0095ca" stroke-width="1.51"/><path d="M729,28L653,5L642,93Z" fill="#027dae" stroke="#027dae" stroke-width="1.51"/><path d="M275,294L324,380L333,335Z" fill="#0199d3" stroke="#0199d3" stroke-width="1.51"/><path d="M279,514L234,544L322,617Z" fill="#026b9a" stroke="#026b9a" stroke-width="1.51"/><path d="M354,174L321,209L432,191Z" fill="#009bd4" stroke="#009bd4" stroke-width="1.51"/><path d="M318,782L401,726L380,704Z" fill="#055f86" stroke="#055f86" stroke-width="1.51"/><path d="M401,726L461,856L490,752Z" fill="#055f87" stroke="#055f87" stroke-width="1.51"/><path d="M321,209L275,294L333,335Z" fill="#009fd9" stroke="#009fd9" stroke-width="1.51"/><path d="M1120,615L1225,545L1112,454Z" fill="#03395a" stroke="#03395a" stroke-width="1.51"/><path d="M1106,739L1127,666L1036,709Z" fill="#032a46" stroke="#032a46" stroke-width="1.51"/><path d="M1046,49L964,72L1030,165Z" fill="#025c85" stroke="#025c85" stroke-width="1.51"/><path d="M1030,165L964,72L928,182Z" fill="#01608c" stroke="#01608c" stroke-width="1.51"/><path d="M729,28L766,-16L653,5Z" fill="#0175a4" stroke="#0175a4" stroke-width="1.51"/><path d="M461,856L500,884L490,752Z" fill="#065d83" stroke="#065d83" stroke-width="1.51"/><path d="M154,505L234,544L279,514Z" fill="#0270a0" stroke="#0270a0" stroke-width="1.51"/><path d="M854,-12L766,-16L841,83Z" fill="#026a95" stroke="#026a95" stroke-width="1.51"/><path d="M1070,809L1106,739L1036,709Z" fill="#032942" stroke="#032942" stroke-width="1.51"/><path d="M650,903L735,1036L747,907Z" fill="#063f5b" stroke="#063f5b" stroke-width="1.51"/><path d="M500,884L588,933L599,835Z" fill="#065172" stroke="#065172" stroke-width="1.51"/><path d="M1092,211L1112,187L1030,165Z" fill="#03608a" stroke="#03608a" stroke-width="1.51"/><path d="M1208,230L1112,187L1092,211Z" fill="#055f88" stroke="#055f88" stroke-width="1.51"/><path d="M483,79L450,39L460,132Z" fill="#0098cf" stroke="#0098cf" stroke-width="1.51"/><path d="M274,107L267,232L321,209Z" fill="#0097cd" stroke="#0097cd" stroke-width="1.51"/><path d="M465,-13L483,79L576,58Z" fill="#0092c7" stroke="#0092c7" stroke-width="1.51"/><path d="M632,-38L576,58L653,5Z" fill="#0182b2" stroke="#0182b2" stroke-width="1.51"/><path d="M964,72L854,-12L841,83Z" fill="#02648e" stroke="#02648e" stroke-width="1.51"/><path d="M321,209L267,232L275,294Z" fill="#009bd4" stroke="#009bd4" stroke-width="1.51"/><path d="M275,294L193,384L251,403Z" fill="#0191c8" stroke="#0191c8" stroke-width="1.51"/><path d="M251,403L154,505L279,514Z" fill="#017aab" stroke="#017aab" stroke-width="1.51"/><path d="M274,107L321,209L354,174Z" fill="#0097cd" stroke="#0097cd" stroke-width="1.51"/><path d="M1037,845L1070,809L1036,709Z" fill="#032741" stroke="#032741" stroke-width="1.51"/><path d="M947,848L1037,845L1036,709Z" fill="#032842" stroke="#032842" stroke-width="1.51"/><path d="M884,967L939,909L819,800Z" fill="#042e46" stroke="#042e46" stroke-width="1.51"/><path d="M979,917L939,909L968,970Z" fill="#03253b" stroke="#03253b" stroke-width="1.51"/><path d="M979,917L1037,845L947,848Z" fill="#03263c" stroke="#03263c" stroke-width="1.51"/><path d="M295,633L318,782L380,704Z" fill="#055f87" stroke="#055f87" stroke-width="1.51"/><path d="M461,856L417,962L500,884Z" fill="#08597a" stroke="#08597a" stroke-width="1.51"/><path d="M235,660L318,782L295,633Z" fill="#045e86" stroke="#045e86" stroke-width="1.51"/><path d="M715,-113L632,-38L653,5Z" fill="#027bab" stroke="#027bab" stroke-width="1.51"/><path d="M715,-113L653,5L766,-16Z" fill="#0175a4" stroke="#0175a4" stroke-width="1.51"/><path d="M500,884L541,1013L588,933Z" fill="#085373" stroke="#085373" stroke-width="1.51"/><path d="M368,856L397,866L401,726Z" fill="#065b7f" stroke="#065b7f" stroke-width="1.51"/><path d="M234,544L235,660L295,633Z" fill="#01618d" stroke="#01618d" stroke-width="1.51"/><path d="M637,1038L650,903L588,933Z" fill="#074967" stroke="#074967" stroke-width="1.51"/><path d="M318,782L368,856L401,726Z" fill="#055c81" stroke="#055c81" stroke-width="1.51"/><path d="M397,866L368,856L313,885Z" fill="#085778" stroke="#085778" stroke-width="1.51"/><path d="M115,315L193,384L119,289Z" fill="#0193c9" stroke="#0193c9" stroke-width="1.51"/><path d="M234,544L182,571L235,660Z" fill="#02628f" stroke="#02628f" stroke-width="1.51"/><path d="M1222,624L1225,545L1120,615Z" fill="#022e4b" stroke="#022e4b" stroke-width="1.51"/><path d="M1136,355L1208,230L1092,211Z" fill="#05628d" stroke="#05628d" stroke-width="1.51"/><path d="M1222,624L1120,615L1127,666Z" fill="#022c49" stroke="#022c49" stroke-width="1.51"/><path d="M1222,624L1127,666L1187,761Z" fill="#032942" stroke="#032942" stroke-width="1.51"/><path d="M450,39L344,86L460,132Z" fill="#0096cc" stroke="#0096cc" stroke-width="1.51"/><path d="M1225,545L1234,496L1112,454Z" fill="#033f60" stroke="#033f60" stroke-width="1.51"/><path d="M939,909L979,917L947,848Z" fill="#03263c" stroke="#03263c" stroke-width="1.51"/><path d="M1200,855L1187,761L1070,809Z" fill="#032338" stroke="#032338" stroke-width="1.51"/><path d="M884,967L819,800L747,907Z" fill="#05354e" stroke="#05354e" stroke-width="1.51"/><path d="M1234,496L1238,405L1112,454Z" fill="#04476b" stroke="#04476b" stroke-width="1.51"/><path d="M735,1036L884,967L747,907Z" fill="#053751" stroke="#053751" stroke-width="1.51"/><path d="M1140,97L1046,49L1030,165Z" fill="#035a82" stroke="#035a82" stroke-width="1.51"/><path d="M964,72L959,-30L854,-12Z" fill="#025c85" stroke="#025c85" stroke-width="1.51"/><path d="M1140,97L1030,165L1112,187Z" fill="#035d85" stroke="#035d85" stroke-width="1.51"/><path d="M450,39L351,-41L344,86Z" fill="#0090c3" stroke="#0090c3" stroke-width="1.51"/><path d="M632,-38L465,-13L576,58Z" fill="#0189bb" stroke="#0189bb" stroke-width="1.51"/><path d="M154,505L182,571L234,544Z" fill="#026b99" stroke="#026b99" stroke-width="1.51"/><path d="M1225,545L1248,535L1234,496Z" fill="#033857" stroke="#033857" stroke-width="1.51"/><path d="M1187,761L1127,666L1106,739Z" fill="#032841" stroke="#032841" stroke-width="1.51"/><path d="M1250,543L1248,535L1225,545Z" fill="#033554" stroke="#033554" stroke-width="1.51"/><path d="M1325,468L1278,389L1238,405Z" fill="#05496b" stroke="#05496b" stroke-width="1.51"/><path d="M1222,624L1250,543L1225,545Z" fill="#02304e" stroke="#02304e" stroke-width="1.51"/><path d="M1325,468L1238,405L1234,496Z" fill="#044364" stroke="#044364" stroke-width="1.51"/><path d="M1238,405L1233,294L1136,355Z" fill="#055981" stroke="#055981" stroke-width="1.51"/><path d="M1278,389L1233,294L1238,405Z" fill="#05557a" stroke="#05557a" stroke-width="1.51"/><path d="M1233,294L1208,230L1136,355Z" fill="#05628c" stroke="#05628c" stroke-width="1.51"/><path d="M768,-117L715,-113L766,-16Z" fill="#01719e" stroke="#01719e" stroke-width="1.51"/><path d="M1046,49L959,-30L964,72Z" fill="#025880" stroke="#025880" stroke-width="1.51"/><path d="M193,384L154,505L251,403Z" fill="#0281b4" stroke="#0281b4" stroke-width="1.51"/><path d="M267,232L178,206L275,294Z" fill="#0099d1" stroke="#0099d1" stroke-width="1.51"/><path d="M193,384L41,392L154,505Z" fill="#027eb0" stroke="#027eb0" stroke-width="1.51"/><path d="M344,86L274,107L354,174Z" fill="#0094c9" stroke="#0094c9" stroke-width="1.51"/><path d="M274,50L274,107L344,86Z" fill="#0090c3" stroke="#0090c3" stroke-width="1.51"/><path d="M1070,809L1187,761L1106,739Z" fill="#03263e" stroke="#03263e" stroke-width="1.51"/><path d="M1371,593L1325,468L1250,543Z" fill="#033450" stroke="#033450" stroke-width="1.51"/><path d="M1200,855L1070,809L1145,954Z" fill="#032133" stroke="#032133" stroke-width="1.51"/><path d="M1016,-66L934,-95L959,-30Z" fill="#02577e" stroke="#02577e" stroke-width="1.51"/><path d="M1208,230L1184,159L1112,187Z" fill="#055d84" stroke="#055d84" stroke-width="1.51"/><path d="M1178,62L1184,159L1267,173Z" fill="#05577b" stroke="#05577b" stroke-width="1.51"/><path d="M1184,159L1140,97L1112,187Z" fill="#045a81" stroke="#045a81" stroke-width="1.51"/><path d="M979,917L1145,954L1037,845Z" fill="#032235" stroke="#032235" stroke-width="1.51"/><path d="M884,967L968,970L939,909Z" fill="#04283f" stroke="#04283f" stroke-width="1.51"/><path d="M637,1038L735,1036L650,903Z" fill="#064460" stroke="#064460" stroke-width="1.51"/><path d="M884,967L884,1015L968,970Z" fill="#042a41" stroke="#042a41" stroke-width="1.51"/><path d="M541,1013L500,884L417,962Z" fill="#08597b" stroke="#08597b" stroke-width="1.51"/><path d="M1325,468L1234,496L1248,535Z" fill="#033b5b" stroke="#033b5b" stroke-width="1.51"/><path d="M1267,173L1184,159L1208,230Z" fill="#055b7f" stroke="#055b7f" stroke-width="1.51"/><path d="M417,962L461,856L397,866Z" fill="#095879" stroke="#095879" stroke-width="1.51"/><path d="M768,-117L766,-16L854,-12Z" fill="#026b97" stroke="#026b97" stroke-width="1.51"/><path d="M632,-38L562,-115L465,-13Z" fill="#0189bc" stroke="#0189bc" stroke-width="1.51"/><path d="M313,885L417,962L397,866Z" fill="#085675" stroke="#085675" stroke-width="1.51"/><path d="M313,885L368,856L318,782Z" fill="#065779" stroke="#065779" stroke-width="1.51"/><path d="M318,782L235,660L188,745Z" fill="#045a80" stroke="#045a80" stroke-width="1.51"/><path d="M238,814L318,782L188,745Z" fill="#05577a" stroke="#05577a" stroke-width="1.51"/><path d="M238,814L313,885L318,782Z" fill="#065778" stroke="#065778" stroke-width="1.51"/><path d="M735,1036L884,1015L884,967Z" fill="#05324b" stroke="#05324b" stroke-width="1.51"/><path d="M553,1024L637,1038L588,933Z" fill="#074d6c" stroke="#074d6c" stroke-width="1.51"/><path d="M541,1013L553,1024L588,933Z" fill="#075170" stroke="#075170" stroke-width="1.51"/><path d="M388,1051L553,1024L541,1013Z" fill="#08587a" stroke="#08587a" stroke-width="1.51"/><path d="M860,-130L768,-117L854,-12Z" fill="#026892" stroke="#026892" stroke-width="1.51"/><path d="M188,745L235,660L115,647Z" fill="#035a81" stroke="#035a81" stroke-width="1.51"/><path d="M189,176L178,206L267,232Z" fill="#0095cb" stroke="#0095cb" stroke-width="1.51"/><path d="M115,647L235,660L182,571Z" fill="#025d88" stroke="#025d88" stroke-width="1.51"/><path d="M274,107L189,176L267,232Z" fill="#0094c9" stroke="#0094c9" stroke-width="1.51"/><path d="M884,1015L993,986L968,970Z" fill="#03263c" stroke="#03263c" stroke-width="1.51"/><path d="M968,970L993,986L979,917Z" fill="#032539" stroke="#032539" stroke-width="1.51"/><path d="M860,-130L562,-115L715,-113Z" fill="#0175a4" stroke="#0175a4" stroke-width="1.51"/><path d="M715,-113L562,-115L632,-38Z" fill="#017faf" stroke="#017faf" stroke-width="1.51"/><path d="M351,-41L274,50L344,86Z" fill="#008ec0" stroke="#008ec0" stroke-width="1.51"/><path d="M411,-59L450,39L465,-13Z" fill="#0091c5" stroke="#0091c5" stroke-width="1.51"/><path d="M274,107L164,41L189,176Z" fill="#008ec0" stroke="#008ec0" stroke-width="1.51"/><path d="M506,-118L411,-59L465,-13Z" fill="#0092c6" stroke="#0092c6" stroke-width="1.51"/><path d="M959,-30L934,-95L854,-12Z" fill="#015d85" stroke="#015d85" stroke-width="1.51"/><path d="M1016,-66L959,-30L1046,49Z" fill="#02567c" stroke="#02567c" stroke-width="1.51"/><path d="M188,745L203,794L238,814Z" fill="#055678" stroke="#055678" stroke-width="1.51"/><path d="M238,814L224,894L313,885Z" fill="#075371" stroke="#075371" stroke-width="1.51"/><path d="M119,289L275,294L178,206Z" fill="#0098d0" stroke="#0098d0" stroke-width="1.51"/><path d="M119,289L193,384L275,294Z" fill="#0197cf" stroke="#0197cf" stroke-width="1.51"/><path d="M67,572L115,647L182,571Z" fill="#025d87" stroke="#025d87" stroke-width="1.51"/><path d="M1116,-59L1016,-66L1046,49Z" fill="#035478" stroke="#035478" stroke-width="1.51"/><path d="M1062,-143L860,-130L934,-95Z" fill="#025980" stroke="#025980" stroke-width="1.51"/><path d="M934,-95L860,-130L854,-12Z" fill="#02618a" stroke="#02618a" stroke-width="1.51"/><path d="M768,-117L860,-130L715,-113Z" fill="#016d99" stroke="#016d99" stroke-width="1.51"/><path d="M51,274L119,289L82,178Z" fill="#0092c7" stroke="#0092c7" stroke-width="1.51"/><path d="M562,-115L506,-118L465,-13Z" fill="#008fc2" stroke="#008fc2" stroke-width="1.51"/><path d="M379,-140L506,-118L562,-115Z" fill="#0092c7" stroke="#0092c7" stroke-width="1.51"/><path d="M1267,173L1208,230L1310,229Z" fill="#055a7f" stroke="#055a7f" stroke-width="1.51"/><path d="M1250,543L1325,468L1248,535Z" fill="#033957" stroke="#033957" stroke-width="1.51"/><path d="M1316,633L1250,543L1222,624Z" fill="#022a46" stroke="#022a46" stroke-width="1.51"/><path d="M1140,97L1154,-20L1046,49Z" fill="#045579" stroke="#045579" stroke-width="1.51"/><path d="M1184,159L1178,62L1140,97Z" fill="#04577c" stroke="#04577c" stroke-width="1.51"/><path d="M1208,230L1233,294L1310,229Z" fill="#055e84" stroke="#055e84" stroke-width="1.51"/><path d="M411,-59L351,-41L450,39Z" fill="#008fc2" stroke="#008fc2" stroke-width="1.51"/><path d="M257,-44L351,-41L289,-152Z" fill="#008bbb" stroke="#008bbb" stroke-width="1.51"/><path d="M87,810L198,818L203,794Z" fill="#055272" stroke="#055272" stroke-width="1.51"/><path d="M67,572L182,571L154,505Z" fill="#026793" stroke="#026793" stroke-width="1.51"/><path d="M87,810L203,794L188,745Z" fill="#055475" stroke="#055475" stroke-width="1.51"/><path d="M203,794L198,818L238,814Z" fill="#055475" stroke="#055475" stroke-width="1.51"/><path d="M313,885L364,1037L417,962Z" fill="#075675" stroke="#075675" stroke-width="1.51"/><path d="M1187,761L1316,633L1222,624Z" fill="#032740" stroke="#032740" stroke-width="1.51"/><path d="M1145,954L1070,809L1037,845Z" fill="#042336" stroke="#042336" stroke-width="1.51"/><path d="M1323,291L1233,294L1278,389Z" fill="#065b81" stroke="#065b81" stroke-width="1.51"/><path d="M1314,791L1316,633L1187,761Z" fill="#032438" stroke="#032438" stroke-width="1.51"/><path d="M1356,354L1323,291L1278,389Z" fill="#06567a" stroke="#06567a" stroke-width="1.51"/><path d="M1323,291L1310,229L1233,294Z" fill="#065e83" stroke="#065e83" stroke-width="1.51"/><path d="M417,962L388,1051L541,1013Z" fill="#08597a" stroke="#08597a" stroke-width="1.51"/><path d="M198,818L224,894L238,814Z" fill="#065372" stroke="#065372" stroke-width="1.51"/><path d="M137,897L224,894L198,818Z" fill="#06506d" stroke="#06506d" stroke-width="1.51"/><path d="M35,461L67,572L154,505Z" fill="#026c99" stroke="#026c99" stroke-width="1.51"/><path d="M115,647L111,726L188,745Z" fill="#04577b" stroke="#04577b" stroke-width="1.51"/><path d="M41,392L193,384L115,315Z" fill="#018bbf" stroke="#018bbf" stroke-width="1.51"/><path d="M55,683L111,726L115,647Z" fill="#03567b" stroke="#03567b" stroke-width="1.51"/><path d="M1323,291L1345,241L1310,229Z" fill="#065b7f" stroke="#065b7f" stroke-width="1.51"/><path d="M1376,373L1356,354L1278,389Z" fill="#065073" stroke="#065073" stroke-width="1.51"/><path d="M1376,373L1278,389L1325,468Z" fill="#05496b" stroke="#05496b" stroke-width="1.51"/><path d="M1178,62L1154,-20L1140,97Z" fill="#045476" stroke="#045476" stroke-width="1.51"/><path d="M1016,-66L1062,-143L934,-95Z" fill="#02567c" stroke="#02567c" stroke-width="1.51"/><path d="M1275,22L1154,-20L1178,62Z" fill="#045170" stroke="#045170" stroke-width="1.51"/><path d="M1275,22L1178,62L1267,173Z" fill="#045474" stroke="#045474" stroke-width="1.51"/><path d="M1126,1026L1145,954L993,986Z" fill="#032133" stroke="#032133" stroke-width="1.51"/><path d="M993,986L1145,954L979,917Z" fill="#042336" stroke="#042336" stroke-width="1.51"/><path d="M1154,-20L1116,-59L1046,49Z" fill="#045375" stroke="#045375" stroke-width="1.51"/><path d="M1145,954L1210,897L1200,855Z" fill="#031e2e" stroke="#031e2e" stroke-width="1.51"/><path d="M1200,855L1273,816L1187,761Z" fill="#032133" stroke="#032133" stroke-width="1.51"/><path d="M1210,897L1273,816L1200,855Z" fill="#031f2f" stroke="#031f2f" stroke-width="1.51"/><path d="M231,1008L364,1037L313,885Z" fill="#075371" stroke="#075371" stroke-width="1.51"/><path d="M553,1024L388,1051L637,1038Z" fill="#085575" stroke="#085575" stroke-width="1.51"/><path d="M364,1037L388,1051L417,962Z" fill="#085676" stroke="#085676" stroke-width="1.51"/><path d="M637,1038L388,1051L735,1036Z" fill="#074d6c" stroke="#074d6c" stroke-width="1.51"/><path d="M51,274L41,392L115,315Z" fill="#0190c5" stroke="#0190c5" stroke-width="1.51"/><path d="M51,274L115,315L119,289Z" fill="#0096cd" stroke="#0096cd" stroke-width="1.51"/><path d="M119,289L178,206L82,178Z" fill="#0093c7" stroke="#0093c7" stroke-width="1.51"/><path d="M41,392L35,461L154,505Z" fill="#0177a6" stroke="#0177a6" stroke-width="1.51"/><path d="M67,572L55,683L115,647Z" fill="#025980" stroke="#025980" stroke-width="1.51"/><path d="M1483,363L1376,373L1494,496Z" fill="#074663" stroke="#074663" stroke-width="1.51"/><path d="M1430,331L1345,241L1323,291Z" fill="#075c7f" stroke="#075c7f" stroke-width="1.51"/><path d="M1430,331L1323,291L1356,354Z" fill="#07587b" stroke="#07587b" stroke-width="1.51"/><path d="M1310,229L1342,120L1267,173Z" fill="#055778" stroke="#055778" stroke-width="1.51"/><path d="M1316,633L1371,593L1250,543Z" fill="#032b45" stroke="#032b45" stroke-width="1.51"/><path d="M1383,665L1371,593L1316,633Z" fill="#03263d" stroke="#03263d" stroke-width="1.51"/><path d="M79,101L82,178L189,176Z" fill="#008dbe" stroke="#008dbe" stroke-width="1.51"/><path d="M351,-41L257,-44L274,50Z" fill="#008aba" stroke="#008aba" stroke-width="1.51"/><path d="M379,-140L351,-41L411,-59Z" fill="#008ec0" stroke="#008ec0" stroke-width="1.51"/><path d="M41,392L-7,364L35,461Z" fill="#017fae" stroke="#017fae" stroke-width="1.51"/><path d="M82,178L178,206L189,176Z" fill="#0091c5" stroke="#0091c5" stroke-width="1.51"/><path d="M860,-130L379,-140L562,-115Z" fill="#0183b4" stroke="#0183b4" stroke-width="1.51"/><path d="M506,-118L379,-140L411,-59Z" fill="#0091c4" stroke="#0091c4" stroke-width="1.51"/><path d="M164,41L274,107L274,50Z" fill="#008cbe" stroke="#008cbe" stroke-width="1.51"/><path d="M1351,822L1314,791L1273,816Z" fill="#031e2e" stroke="#031e2e" stroke-width="1.51"/><path d="M1273,816L1314,791L1187,761Z" fill="#032133" stroke="#032133" stroke-width="1.51"/><path d="M257,-44L164,41L274,50Z" fill="#0089b8" stroke="#0089b8" stroke-width="1.51"/><path d="M111,726L87,810L188,745Z" fill="#045475" stroke="#045475" stroke-width="1.51"/><path d="M-12,636L55,683L67,572Z" fill="#02577e" stroke="#02577e" stroke-width="1.51"/><path d="M1288,960L1351,822L1273,816Z" fill="#031c29" stroke="#031c29" stroke-width="1.51"/><path d="M1145,954L1273,971L1210,897Z" fill="#031d2c" stroke="#031d2c" stroke-width="1.51"/><path d="M884,1015L1126,1026L993,986Z" fill="#032439" stroke="#032439" stroke-width="1.51"/><path d="M735,1036L1126,1026L884,1015Z" fill="#042a40" stroke="#042a40" stroke-width="1.51"/><path d="M1227,1033L1126,1026L735,1036Z" fill="#032337" stroke="#032337" stroke-width="1.51"/><path d="M271,-155L289,-152L379,-140Z" fill="#008bbc" stroke="#008bbc" stroke-width="1.51"/><path d="M1116,-59L1062,-143L1016,-66Z" fill="#035478" stroke="#035478" stroke-width="1.51"/><path d="M1087,-145L1062,-143L1116,-59Z" fill="#035376" stroke="#035376" stroke-width="1.51"/><path d="M1314,791L1383,665L1316,633Z" fill="#032338" stroke="#032338" stroke-width="1.51"/><path d="M1483,363L1430,331L1376,373Z" fill="#085070" stroke="#085070" stroke-width="1.51"/><path d="M28,798L87,810L111,726Z" fill="#045070" stroke="#045070" stroke-width="1.51"/><path d="M224,894L231,1008L313,885Z" fill="#07516e" stroke="#07516e" stroke-width="1.51"/><path d="M271,-155L379,-140L860,-130Z" fill="#0090c4" stroke="#0090c4" stroke-width="1.51"/><path d="M1184,-112L1087,-145L1116,-59Z" fill="#045274" stroke="#045274" stroke-width="1.51"/><path d="M1184,-112L1116,-59L1154,-20Z" fill="#045172" stroke="#045172" stroke-width="1.51"/><path d="M87,810L137,897L198,818Z" fill="#05506e" stroke="#05506e" stroke-width="1.51"/><path d="M1342,120L1275,22L1267,173Z" fill="#055272" stroke="#055272" stroke-width="1.51"/><path d="M1345,241L1342,120L1310,229Z" fill="#065779" stroke="#065779" stroke-width="1.51"/><path d="M1386,103L1342,120L1345,241Z" fill="#065473" stroke="#065473" stroke-width="1.51"/><path d="M-51,574L-12,636L67,572Z" fill="#025981" stroke="#025981" stroke-width="1.51"/><path d="M51,274L-7,364L41,392Z" fill="#018bbe" stroke="#018bbe" stroke-width="1.51"/><path d="M-50,301L-7,364L51,274Z" fill="#0090c4" stroke="#0090c4" stroke-width="1.51"/><path d="M137,897L231,1008L224,894Z" fill="#074f6a" stroke="#074f6a" stroke-width="1.51"/><path d="M364,1037L135,1048L388,1051Z" fill="#075371" stroke="#075371" stroke-width="1.51"/><path d="M-57,217L-50,301L51,274Z" fill="#0090c3" stroke="#0090c3" stroke-width="1.51"/><path d="M164,41L79,101L189,176Z" fill="#008bbc" stroke="#008bbc" stroke-width="1.51"/><path d="M143,-7L79,101L164,41Z" fill="#0086b4" stroke="#0086b4" stroke-width="1.51"/><path d="M1376,373L1430,331L1356,354Z" fill="#085273" stroke="#085273" stroke-width="1.51"/><path d="M1435,582L1325,468L1371,593Z" fill="#042f49" stroke="#042f49" stroke-width="1.51"/><path d="M185,-92L143,-7L257,-44Z" fill="#0086b4" stroke="#0086b4" stroke-width="1.51"/><path d="M257,-44L143,-7L164,41Z" fill="#0086b3" stroke="#0086b3" stroke-width="1.51"/><path d="M1288,960L1273,816L1210,897Z" fill="#031d2a" stroke="#031d2a" stroke-width="1.51"/><path d="M1314,791L1404,729L1383,665Z" fill="#032133" stroke="#032133" stroke-width="1.51"/><path d="M1383,665L1435,582L1371,593Z" fill="#03263c" stroke="#03263c" stroke-width="1.51"/><path d="M1440,679L1435,582L1383,665Z" fill="#032438" stroke="#032438" stroke-width="1.51"/><path d="M-56,530L67,572L35,461Z" fill="#026792" stroke="#026792" stroke-width="1.51"/><path d="M-4,753L28,798L111,726Z" fill="#045170" stroke="#045170" stroke-width="1.51"/><path d="M379,-140L289,-152L351,-41Z" fill="#008cbe" stroke="#008cbe" stroke-width="1.51"/><path d="M271,-155L860,-130L1062,-143Z" fill="#0173a0" stroke="#0173a0" stroke-width="1.51"/><path d="M1351,822L1404,729L1314,791Z" fill="#031f2e" stroke="#031f2e" stroke-width="1.51"/><path d="M1239,-64L1184,-112L1154,-20Z" fill="#044f6f" stroke="#044f6f" stroke-width="1.51"/><path d="M1239,-64L1154,-20L1275,22Z" fill="#044f6d" stroke="#044f6d" stroke-width="1.51"/><path d="M1257,-112L1239,-64L1335,-48Z" fill="#044c6a" stroke="#044c6a" stroke-width="1.51"/><path d="M289,-152L271,-155L257,-44Z" fill="#008ab9" stroke="#008ab9" stroke-width="1.51"/><path d="M1087,-145L271,-155L1062,-143Z" fill="#026a95" stroke="#026a95" stroke-width="1.51"/><path d="M137,897L135,1048L231,1008Z" fill="#064d68" stroke="#064d68" stroke-width="1.51"/><path d="M87,810L57,885L137,897Z" fill="#064d68" stroke="#064d68" stroke-width="1.51"/><path d="M-4,753L111,726L55,683Z" fill="#045375" stroke="#045375" stroke-width="1.51"/><path d="M1487,758L1440,679L1404,729Z" fill="#031f2f" stroke="#031f2f" stroke-width="1.51"/><path d="M1227,1033L1273,971L1145,954Z" fill="#031d2c" stroke="#031d2c" stroke-width="1.51"/><path d="M1404,729L1440,679L1383,665Z" fill="#042234" stroke="#042234" stroke-width="1.51"/><path d="M1494,496L1376,373L1325,468Z" fill="#05415e" stroke="#05415e" stroke-width="1.51"/><path d="M1448,836L1404,729L1351,822Z" fill="#031d2a" stroke="#031d2a" stroke-width="1.51"/><path d="M271,-155L185,-92L257,-44Z" fill="#0088b7" stroke="#0088b7" stroke-width="1.51"/><path d="M143,-7L-18,-43L79,101Z" fill="#0082ad" stroke="#0082ad" stroke-width="1.51"/><path d="M1273,971L1288,960L1210,897Z" fill="#031c29" stroke="#031c29" stroke-width="1.51"/><path d="M1342,120L1386,103L1275,22Z" fill="#05506d" stroke="#05506d" stroke-width="1.51"/><path d="M1474,274L1386,103L1345,241Z" fill="#075575" stroke="#075575" stroke-width="1.51"/><path d="M-12,636L-4,753L55,683Z" fill="#045376" stroke="#045376" stroke-width="1.51"/><path d="M-78,438L-56,530L35,461Z" fill="#016f9c" stroke="#016f9c" stroke-width="1.51"/><path d="M-56,530L-51,574L67,572Z" fill="#026088" stroke="#026088" stroke-width="1.51"/><path d="M-68,742L-4,753L-12,636Z" fill="#045273" stroke="#045273" stroke-width="1.51"/><path d="M1273,971L1395,998L1288,960Z" fill="#031a26" stroke="#031a26" stroke-width="1.51"/><path d="M1126,1026L1227,1033L1145,954Z" fill="#031f2f" stroke="#031f2f" stroke-width="1.51"/><path d="M388,1051L1227,1033L735,1036Z" fill="#053852" stroke="#053852" stroke-width="1.51"/><path d="M-7,364L-78,438L35,461Z" fill="#027ba9" stroke="#027ba9" stroke-width="1.51"/><path d="M-39,168L51,274L82,178Z" fill="#008ebf" stroke="#008ebf" stroke-width="1.51"/><path d="M-39,168L82,178L79,101Z" fill="#008ab9" stroke="#008ab9" stroke-width="1.51"/><path d="M12,967L57,885L-61,882Z" fill="#06475f" stroke="#06475f" stroke-width="1.51"/><path d="M28,798L57,885L87,810Z" fill="#054d69" stroke="#054d69" stroke-width="1.51"/><path d="M1494,496L1325,468L1435,582Z" fill="#05344e" stroke="#05344e" stroke-width="1.51"/><path d="M1430,331L1474,274L1345,241Z" fill="#07597c" stroke="#07597c" stroke-width="1.51"/><path d="M-50,301L-67,351L-7,364Z" fill="#018bbd" stroke="#018bbd" stroke-width="1.51"/><path d="M1562,483L1494,496L1568,576Z" fill="#05334b" stroke="#05334b" stroke-width="1.51"/><path d="M-67,351L-78,438L-7,364Z" fill="#0181b2" stroke="#0181b2" stroke-width="1.51"/><path d="M-134,597L-88,648L-51,574Z" fill="#02577e" stroke="#02577e" stroke-width="1.51"/><path d="M1508,310L1474,274L1430,331Z" fill="#08597a" stroke="#08597a" stroke-width="1.51"/><path d="M1239,-64L1257,-112L1184,-112Z" fill="#044e6d" stroke="#044e6d" stroke-width="1.51"/><path d="M1184,-112L1257,-112L1087,-145Z" fill="#045070" stroke="#045070" stroke-width="1.51"/><path d="M1335,-48L1239,-64L1275,22Z" fill="#044c69" stroke="#044c69" stroke-width="1.51"/><path d="M185,-92L110,-63L143,-7Z" fill="#0084b0" stroke="#0084b0" stroke-width="1.51"/><path d="M31,-105L110,-63L23,-138Z" fill="#0080aa" stroke="#0080aa" stroke-width="1.51"/><path d="M-67,351L-91,462L-78,438Z" fill="#027baa" stroke="#027baa" stroke-width="1.51"/><path d="M-78,438L-91,462L-56,530Z" fill="#016f9c" stroke="#016f9c" stroke-width="1.51"/><path d="M-51,574L-88,648L-12,636Z" fill="#02577d" stroke="#02577d" stroke-width="1.51"/><path d="M-56,79L-39,168L79,101Z" fill="#0086b3" stroke="#0086b3" stroke-width="1.51"/><path d="M-50,301L-124,249L-67,351Z" fill="#0093c7" stroke="#0093c7" stroke-width="1.51"/><path d="M-67,351L-124,249L-91,462Z" fill="#0188ba" stroke="#0188ba" stroke-width="1.51"/><path d="M-39,168L-57,217L51,274Z" fill="#008dbe" stroke="#008dbe" stroke-width="1.51"/><path d="M1453,62L1335,-48L1386,103Z" fill="#054b65" stroke="#054b65" stroke-width="1.51"/><path d="M1386,103L1335,-48L1275,22Z" fill="#054d68" stroke="#054d68" stroke-width="1.51"/><path d="M1497,113L1453,62L1386,103Z" fill="#064d68" stroke="#064d68" stroke-width="1.51"/><path d="M1483,363L1508,310L1430,331Z" fill="#085474" stroke="#085474" stroke-width="1.51"/><path d="M1529,427L1508,310L1483,363Z" fill="#074d6c" stroke="#074d6c" stroke-width="1.51"/><path d="M1461,882L1403,894L1395,998Z" fill="#011820" stroke="#011820" stroke-width="1.51"/><path d="M1288,960L1403,894L1351,822Z" fill="#031a24" stroke="#031a24" stroke-width="1.51"/><path d="M1562,483L1529,427L1494,496Z" fill="#053b56" stroke="#053b56" stroke-width="1.51"/><path d="M-134,597L-51,574L-56,530Z" fill="#015e86" stroke="#015e86" stroke-width="1.51"/><path d="M-4,753L-77,824L28,798Z" fill="#044d6a" stroke="#044d6a" stroke-width="1.51"/><path d="M71,1034L137,897L12,967Z" fill="#064a63" stroke="#064a63" stroke-width="1.51"/><path d="M71,1034L135,1048L137,897Z" fill="#064c65" stroke="#064c65" stroke-width="1.51"/><path d="M231,1008L135,1048L364,1037Z" fill="#07516d" stroke="#07516d" stroke-width="1.51"/><path d="M1494,496L1529,427L1483,363Z" fill="#06435f" stroke="#06435f" stroke-width="1.51"/><path d="M1494,496L1435,582L1568,576Z" fill="#042d45" stroke="#042d45" stroke-width="1.51"/><path d="M-88,648L-68,742L-12,636Z" fill="#035377" stroke="#035377" stroke-width="1.51"/><path d="M1403,894L1448,836L1351,822Z" fill="#031a25" stroke="#031a25" stroke-width="1.51"/><path d="M1448,836L1487,758L1404,729Z" fill="#031d2a" stroke="#031d2a" stroke-width="1.51"/><path d="M1497,113L1386,103L1530,175Z" fill="#074f6b" stroke="#074f6b" stroke-width="1.51"/><path d="M-88,648L-134,597L-68,742Z" fill="#035478" stroke="#035478" stroke-width="1.51"/><path d="M-91,462L-134,597L-56,530Z" fill="#02658f" stroke="#02658f" stroke-width="1.51"/><path d="M-124,249L-134,597L-91,462Z" fill="#0277a6" stroke="#0277a6" stroke-width="1.51"/><path d="M1529,427L1537,243L1508,310Z" fill="#085575" stroke="#085575" stroke-width="1.51"/><path d="M1508,310L1537,243L1474,274Z" fill="#085979" stroke="#085979" stroke-width="1.51"/><path d="M1568,576L1435,582L1554,691Z" fill="#042439" stroke="#042439" stroke-width="1.51"/><path d="M-57,217L-124,249L-50,301Z" fill="#0090c2" stroke="#0090c2" stroke-width="1.51"/><path d="M-122,180L-124,249L-57,217Z" fill="#008dbe" stroke="#008dbe" stroke-width="1.51"/><path d="M-18,-43L-56,79L79,101Z" fill="#0081ac" stroke="#0081ac" stroke-width="1.51"/><path d="M12,967L137,897L57,885Z" fill="#064a63" stroke="#064a63" stroke-width="1.51"/><path d="M1562,483L1537,243L1529,427Z" fill="#074a68" stroke="#074a68" stroke-width="1.51"/><path d="M-125,11L-59,80L-56,79Z" fill="#0082ad" stroke="#0082ad" stroke-width="1.51"/><path d="M-56,79L-59,80L-39,168Z" fill="#0085b2" stroke="#0085b2" stroke-width="1.51"/><path d="M-122,180L-57,217L-39,168Z" fill="#008bbb" stroke="#008bbb" stroke-width="1.51"/><path d="M-61,882L57,885L28,798Z" fill="#054a64" stroke="#054a64" stroke-width="1.51"/><path d="M-77,824L-4,753L-68,742Z" fill="#044e6c" stroke="#044e6c" stroke-width="1.51"/><path d="M1403,894L1461,882L1448,836Z" fill="#011921" stroke="#011921" stroke-width="1.51"/><path d="M1522,826L1534,785L1487,758Z" fill="#031c29" stroke="#031c29" stroke-width="1.51"/><path d="M1554,691L1435,582L1440,679Z" fill="#042336" stroke="#042336" stroke-width="1.51"/><path d="M1395,998L1403,894L1288,960Z" fill="#021923" stroke="#021923" stroke-width="1.51"/><path d="M1530,175L1386,103L1474,274Z" fill="#075370" stroke="#075370" stroke-width="1.51"/><path d="M-134,597L-77,824L-68,742Z" fill="#045172" stroke="#045172" stroke-width="1.51"/><path d="M1554,691L1440,679L1487,758Z" fill="#032030" stroke="#032030" stroke-width="1.51"/><path d="M1227,1033L1395,998L1273,971Z" fill="#031b27" stroke="#031b27" stroke-width="1.51"/><path d="M1537,243L1530,175L1474,274Z" fill="#085675" stroke="#085675" stroke-width="1.51"/><path d="M1560,-49L1530,175L1537,243Z" fill="#074f6a" stroke="#074f6a" stroke-width="1.51"/><path d="M1534,785L1554,691L1487,758Z" fill="#031e2d" stroke="#031e2d" stroke-width="1.51"/><path d="M-77,824L-61,882L28,798Z" fill="#054b66" stroke="#054b66" stroke-width="1.51"/><path d="M-59,80L-122,180L-39,168Z" fill="#0088b6" stroke="#0088b6" stroke-width="1.51"/><path d="M-71,1041L9,995L12,967Z" fill="#06475f" stroke="#06475f" stroke-width="1.51"/><path d="M12,967L9,995L71,1034Z" fill="#064960" stroke="#064960" stroke-width="1.51"/><path d="M-59,80L-125,11L-122,180Z" fill="#0084b0" stroke="#0084b0" stroke-width="1.51"/><path d="M110,-63L-18,-43L143,-7Z" fill="#0081ac" stroke="#0081ac" stroke-width="1.51"/><path d="M23,-138L110,-63L185,-92Z" fill="#0082ae" stroke="#0082ae" stroke-width="1.51"/><path d="M31,-105L-18,-43L110,-63Z" fill="#0080a9" stroke="#0080a9" stroke-width="1.51"/><path d="M1522,826L1448,836L1461,882Z" fill="#021a23" stroke="#021a23" stroke-width="1.51"/><path d="M1522,826L1487,758L1448,836Z" fill="#031b27" stroke="#031b27" stroke-width="1.51"/><path d="M1539,888L1522,826L1461,882Z" fill="#021922" stroke="#021922" stroke-width="1.51"/><path d="M1335,-48L1394,-130L1257,-112Z" fill="#054b66" stroke="#054b66" stroke-width="1.51"/><path d="M1453,62L1495,17L1335,-48Z" fill="#064860" stroke="#064860" stroke-width="1.51"/><path d="M1497,18L1495,17L1453,62Z" fill="#064962" stroke="#064962" stroke-width="1.51"/><path d="M1497,18L1453,62L1497,113Z" fill="#064b65" stroke="#064b65" stroke-width="1.51"/><path d="M1412,-127L1394,-130L1335,-48Z" fill="#064963" stroke="#064963" stroke-width="1.51"/><path d="M1560,-49L1497,18L1497,113Z" fill="#064961" stroke="#064961" stroke-width="1.51"/><path d="M1412,-127L1335,-48L1502,-76Z" fill="#054860" stroke="#054860" stroke-width="1.51"/><path d="M1257,-112L1394,-130L1087,-145Z" fill="#044e6b" stroke="#044e6b" stroke-width="1.51"/><path d="M31,-105L-82,-80L-18,-43Z" fill="#007ea7" stroke="#007ea7" stroke-width="1.51"/><path d="M-18,-43L-125,11L-56,79Z" fill="#007fa8" stroke="#007fa8" stroke-width="1.51"/><path d="M271,-155L23,-138L185,-92Z" fill="#0085b1" stroke="#0085b1" stroke-width="1.51"/><path d="M1502,-76L1335,-48L1495,17Z" fill="#06475f" stroke="#06475f" stroke-width="1.51"/><path d="M1522,826L1539,888L1534,785Z" fill="#021a25" stroke="#021a25" stroke-width="1.51"/><path d="M1534,785L1539,888L1554,691Z" fill="#031c29" stroke="#031c29" stroke-width="1.51"/><path d="M1554,691L1576,1024L1568,576Z" fill="#031d2b" stroke="#031d2b" stroke-width="1.51"/><path d="M1460,1032L1539,888L1461,882Z" fill="#00171f" stroke="#00171f" stroke-width="1.51"/><path d="M1395,998L1460,1032L1461,882Z" fill="#00171f" stroke="#00171f" stroke-width="1.51"/><path d="M1227,1033L1460,1032L1395,998Z" fill="#021923" stroke="#021923" stroke-width="1.51"/><path d="M388,1051L1460,1032L1227,1033Z" fill="#032337" stroke="#032337" stroke-width="1.51"/><path d="M-82,-80L-125,11L-18,-43Z" fill="#007ea7" stroke="#007ea7" stroke-width="1.51"/><path d="M-122,180L-125,11L-124,249Z" fill="#0088b6" stroke="#0088b6" stroke-width="1.51"/><path d="M-124,249L-125,11L-134,597Z" fill="#0092c6" stroke="#0092c6" stroke-width="1.51"/><path d="M23,-138L-82,-80L31,-105Z" fill="#007ea7" stroke="#007ea7" stroke-width="1.51"/><path d="M1560,-49L1502,-76L1495,17Z" fill="#06475f" stroke="#06475f" stroke-width="1.51"/><path d="M1560,-49L1495,17L1497,18Z" fill="#06475f" stroke="#06475f" stroke-width="1.51"/><path d="M-61,882L-71,1041L12,967Z" fill="#06475f" stroke="#06475f" stroke-width="1.51"/><path d="M9,995L-71,1041L71,1034Z" fill="#06475f" stroke="#06475f" stroke-width="1.51"/><path d="M71,1034L-71,1041L135,1048Z" fill="#064961" stroke="#064961" stroke-width="1.51"/><path d="M-77,824L-71,1041L-61,882Z" fill="#06475f" stroke="#06475f" stroke-width="1.51"/><path d="M-134,597L-71,1041L-77,824Z" fill="#054b67" stroke="#054b67" stroke-width="1.51"/><path d="M1502,-76L1560,-49L1412,-127Z" fill="#06475f" stroke="#06475f" stroke-width="1.51"/><path d="M1530,175L1560,-49L1497,113Z" fill="#064c66" stroke="#064c66" stroke-width="1.51"/><path d="M1562,483L1560,-49L1537,243Z" fill="#085575" stroke="#085575" stroke-width="1.51"/><path d="M1568,576L1560,-49L1562,483Z" fill="#085373" stroke="#085373" stroke-width="1.51"/><path d="M1460,1032L1576,1024L1539,888Z" fill="#00171f" stroke="#00171f" stroke-width="1.51"/><path d="M1539,888L1576,1024L1554,691Z" fill="#021922" stroke="#021922" stroke-width="1.51"/><path d="M1568,576L1576,1024L1560,-49Z" fill="#05334c" stroke="#05334c" stroke-width="1.51"/></svg>